<svg xmlns="http://www.w3.org/2000/svg" viewBox="0 0 442.78 140.36"><defs><style>.cls-1{fill:#fff;}</style></defs><g id="Laag_2" data-name="Laag 2"><path class="cls-1" d="M12,62.33v73.79H44.53V62.33H62.44V35.92H43.88S41.26,20.85,62.44,28.5V2.3S14.63-13,13.32,35.26H0V62.11Z"/><path class="cls-1" d="M117.44,33C86.36,33,61.16,57,61.16,86.66s25.2,53.7,56.28,53.7,56.29-24,56.29-53.7S148.53,33,117.44,33Zm.11,77.41a23.92,23.92,0,1,1,24.32-23.92A24.12,24.12,0,0,1,117.55,110.36Z"/><path class="cls-1" d="M245.16,35.23V45.48s-28.23-29.23-64,.26v79.61s33.27,30.62,63.6.08v11.33H275V35.23Zm-23.6,75.13a23.92,23.92,0,1,1,24.32-23.92A24.12,24.12,0,0,1,221.56,110.36Z"/><path class="cls-1" d="M289.05,34.71h31v15.1s31-32.95,55.73-1.6a2.62,2.62,0,0,0,4-.17c4.55-5.46,17.67-18.66,36.8-14.19a50.74,50.74,0,0,1,5.66,1.67,31.56,31.56,0,0,1,20.58,29.77V135.9H411.44V73.76a13.68,13.68,0,0,0-2.95-8.69c-2.46-3-6.89-5.67-14.75-4.32a14,14,0,0,0-10.45,9.52,14.88,14.88,0,0,0-.57,4.31V135.9H349.49V72.1a11.85,11.85,0,0,0-4.83-9.7,13.71,13.71,0,0,0-6-2.35,15.6,15.6,0,0,0-9,1.47,13.18,13.18,0,0,0-7.29,8.74,17.4,17.4,0,0,0-.57,4.66v61h-32.8Z"/></g></svg>